#tb 0: 1000000/23976023
#tb 1: 1/48000
0,          0,          0,        1,  3686400, 0xcab2cf91
1,          0,          0,     1024,     4096, 0x00000000
1,       1024,       1024,     1024,     4096, 0x00000000
0,          1,          1,        1,  3686400, 0xf8ca574b
1,       2048,       2048,     1024,     4096, 0x00000000
1,       3072,       3072,     1024,     4096, 0x00000000
0,          2,          2,        1,  3686400, 0x8433bae1
1,       4096,       4096,     1024,     4096, 0x00000000
1,       5120,       5120,     1024,     4096, 0x00000000
0,          3,          3,        1,  3686400, 0x43082f7d
1,       6144,       6144,     1024,     4096, 0x00000000
1,       7168,       7168,     1024,     4096, 0x00000000
0,          4,          4,        1,  3686400, 0x7a94eb93
1,       8192,       8192,     1024,     4096, 0x00000000
1,       9216,       9216,     1024,     4096, 0x00000000
0,          5,          5,        1,  3686400, 0x3718db8c
1,      10240,      10240,     1024,     4096, 0x00000000
1,      11264,      11264,      755,     3020, 0x00000000
0,          6,          6,        1,  3686400, 0x64942d1d
1,      12019,      12019,     1024,     4096, 0x00000000
1,      13043,      13043,     1024,     4096, 0x00000000
0,          7,          7,        1,  3686400, 0x9cda1cb0
1,      14067,      14067,     1024,     4096, 0x00000000
1,      15091,      15091,     1024,     4096, 0x00000000
0,          8,          8,        1,  3686400, 0x4e8995e4
1,      16115,      16115,     1024,     4096, 0x00000000
1,      17139,      17139,     1024,     4096, 0x00000000
0,          9,          9,        1,  3686400, 0x231cf996
1,      18163,      18163,     1024,     4096, 0x00000000
1,      19187,      19187,     1024,     4096, 0x00000000
0,         10,         10,        1,  3686400, 0xe7b20103
1,      20211,      20211,     1024,     4096, 0x00000000
1,      21235,      21235,     1024,     4096, 0x00000000
0,         11,         11,        1,  3686400, 0x24480bfa
1,      22259,      22259,     1024,     4096, 0x00000000
1,      23283,      23283,      736,     2944, 0x00000000
1,      24019,      24019,     1024,     4096, 0x00000000
0,         12,         12,        1,  3686400, 0x26c9497f
1,      25043,      25043,     1024,     4096, 0xf320ec0c
0,         13,         13,        1,  3686400, 0x45e2bfc9
1,      26067,      26067,     1024,     4096, 0x419c300c
1,      27091,      27091,     1024,     4096, 0x74933cfe
0,         14,         14,        1,  3686400, 0x513386c2
1,      28115,      28115,     1024,     4096, 0x28184671
1,      29139,      29139,     1024,     4096, 0x689adcb8
0,         15,         15,        1,  3686400, 0xeeb4b506
1,      30163,      30163,     1024,     4096, 0x6fa8da82
1,      31187,      31187,     1024,     4096, 0xe03b19f8
0,         16,         16,        1,  3686400, 0x58c2736b
1,      32211,      32211,     1024,     4096, 0x1cbd8fb9
1,      33235,      33235,     1024,     4096, 0x39c8e93f
0,         17,         17,        1,  3686400, 0xb6ed645d
1,      34259,      34259,     1024,     4096, 0x4c7f8db7
1,      35283,      35283,      736,     2944, 0x35c46ad4
1,      36019,      36019,     1024,     4096, 0x5e1204e2
0,         18,         18,        1,  3686400, 0xf272840c
1,      37043,      37043,     1024,     4096, 0x5983d5d5
0,         19,         19,        1,  3686400, 0x5aec051b
1,      38067,      38067,     1024,     4096, 0x0ea06b96
1,      39091,      39091,     1024,     4096, 0x703f3295
0,         20,         20,        1,  3686400, 0x3b0ab5dc
1,      40115,      40115,     1024,     4096, 0x62d2d491
1,      41139,      41139,     1024,     4096, 0x4cd60903
0,         21,         21,        1,  3686400, 0xdb3ed68b
1,      42163,      42163,     1024,     4096, 0xc29f9e84
1,      43187,      43187,     1024,     4096, 0xc5d460c4
0,         22,         22,        1,  3686400, 0x215e5ae0
1,      44211,      44211,     1024,     4096, 0x6a0f70cf
1,      45235,      45235,     1024,     4096, 0xedb243ea
0,         23,         23,        1,  3686400, 0xde13328d
1,      46259,      46259,     1024,     4096, 0x172bb20e
1,      47283,      47283,      736,     2944, 0xd99b43c6
1,      48019,      48019,     1024,     4096, 0xf1872b51
0,         24,         24,        1,  3686400, 0xe75626ad
1,      49043,      49043,     1024,     4096, 0x6bd9a66f
0,         25,         25,        1,  3686400, 0x1b0b4e4f
1,      50067,      50067,     1024,     4096, 0x7c7edbfa
1,      51091,      51091,     1024,     4096, 0xf8170a6a
0,         26,         26,        1,  3686400, 0x3e0dc086
1,      52115,      52115,     1024,     4096, 0x46fee2b6
1,      53139,      53139,     1024,     4096, 0xeb4f0222
0,         27,         27,        1,  3686400, 0x8d6082b0
1,      54163,      54163,     1024,     4096, 0xa4917686
1,      55187,      55187,     1024,     4096, 0x5b805932
1,      56211,      56211,     1024,     4096, 0xd0b8a1df
1,      57235,      57235,     1024,     4096, 0xd0674528
1,      58259,      58259,     1024,     4096, 0xb87e8d00
1,      59283,      59283,      736,     2944, 0x3d6db060
